<svg width="48" height="50" viewBox="0 0 48 50" fill="none" xmlns="http://www.w3.org/2000/svg">
<path d="M27.7538 35.2146C27.9161 34.837 28.0064 34.4212 28.0064 33.9848C28.0064 32.2615 26.6043 30.8593 24.8809 30.8593H23.5504H20.4013L21.8937 28.3488C22.3329 27.6099 22.4446 26.7135 22.2003 25.8894C21.9559 25.0654 21.3734 24.3749 20.6026 23.9951C19.7351 23.5675 18.702 23.5732 17.8391 24.0099C15.3665 25.2618 13.1165 26.973 11.2371 29.0158C11.0699 28.7175 10.7513 28.5156 10.3851 28.5156H1.79132C1.25206 28.5156 0.814758 28.9529 0.814758 29.4921V34.8632C0.814758 35.4025 1.25206 35.8398 1.79132 35.8398C2.33058 35.8398 2.76788 35.4025 2.76788 34.8632V30.4687H9.40851V48.0468H2.76788V43.6523C2.76788 43.113 2.33058 42.6757 1.79132 42.6757C1.25206 42.6757 0.814758 43.113 0.814758 43.6523V49.0234C0.814758 49.5626 1.25206 49.9999 1.79132 49.9999H10.3851C10.9243 49.9999 11.3616 49.5626 11.3616 49.0234V48.9883C12.5232 49.6416 13.8462 49.9999 15.1898 49.9999H24.2034C25.9258 49.9999 27.3269 48.5987 27.3269 46.8764C27.3269 46.4626 27.2453 46.0678 27.0985 45.7061H27.1594C28.8828 45.7061 30.285 44.3041 30.285 42.5806C30.285 41.7487 29.9576 40.9923 29.4258 40.4317C29.9576 39.871 30.285 39.1146 30.285 38.2827C30.2849 36.7625 29.1939 35.493 27.7538 35.2146ZM27.1593 43.7529H20.7871C20.2479 43.7529 19.8106 44.1902 19.8106 44.7294C19.8106 45.2687 20.2479 45.706 20.7871 45.706H24.2032C24.8485 45.706 25.3735 46.231 25.3735 46.8763C25.3735 47.5216 24.8486 48.0468 24.2033 48.0468H15.1897C13.7886 48.0468 12.4169 47.5283 11.3615 46.6144V31.9095L11.4282 31.822C13.3587 29.2894 15.8806 27.1907 18.7214 25.7525C19.0391 25.5915 19.4194 25.5894 19.7393 25.747C20.0275 25.8889 20.2364 26.1368 20.3277 26.4448C20.4192 26.7528 20.3789 27.0745 20.2149 27.3506L17.8452 31.3369C17.6657 31.6386 17.6622 32.0135 17.8358 32.3187C18.0094 32.624 18.3335 32.8124 18.6846 32.8124H24.8808C25.5272 32.8124 26.0531 33.3384 26.0531 33.9848C26.0531 34.6312 25.5272 35.1572 24.8808 35.1572H20.7871C20.2479 35.1572 19.8106 35.5945 19.8106 36.1337C19.8106 36.673 20.2479 37.1103 20.7871 37.1103H27.1593C27.8058 37.1103 28.3317 37.6363 28.3317 38.2827C28.3317 38.9291 27.8058 39.4551 27.1593 39.4551H20.7871C20.2479 39.4551 19.8106 39.8924 19.8106 40.4317C19.8106 40.9709 20.2479 41.4082 20.7871 41.4082H27.1593C27.8058 41.4082 28.3317 41.9342 28.3317 42.5806C28.3317 43.227 27.8059 43.7529 27.1593 43.7529Z" fill="white"/>
<path d="M32.7544 12.0836L28.5645 11.4749L26.6907 7.678C26.5261 7.3447 26.1867 7.13367 25.8149 7.13367C25.4431 7.13367 25.1037 7.3447 24.9391 7.678L23.0653 11.4749L18.8753 12.0836C18.5074 12.1371 18.2019 12.3948 18.087 12.7483C17.9721 13.1018 18.0679 13.4899 18.334 13.7494L21.366 16.7048L20.6502 20.8778C20.5874 21.2442 20.738 21.6144 21.0388 21.8329C21.3396 22.0513 21.7383 22.0801 22.0672 21.9073L25.8149 19.937L29.5625 21.9073C29.7054 21.9825 29.8615 22.0194 30.0168 22.0194C30.2193 22.0194 30.4208 21.9564 30.591 21.8329C30.8917 21.6144 31.0423 21.2442 30.9795 20.8778L30.2638 16.7048L33.2958 13.7494C33.562 13.4899 33.6577 13.1018 33.5428 12.7483C33.428 12.3948 33.1224 12.1371 32.7544 12.0836ZM28.5329 15.6644C28.3028 15.8888 28.1977 16.212 28.252 16.5289L28.7201 19.2577L26.2694 17.9693C26.1272 17.8945 25.971 17.8572 25.815 17.8572C25.6589 17.8572 25.5028 17.8946 25.3606 17.9693L22.9099 19.2577L23.378 16.5289C23.4323 16.2121 23.3272 15.8888 23.0971 15.6644L21.1145 13.7319L23.8543 13.3339C24.1725 13.2876 24.4474 13.0878 24.5897 12.7996L25.815 10.3168L27.0403 12.7996C27.1826 13.0878 27.4575 13.2876 27.7756 13.3339L30.5155 13.7319L28.5329 15.6644Z" fill="white"/>
<path d="M47.1373 14.4154C47.0224 14.0619 46.7168 13.8042 46.349 13.7507L43.1389 13.2844L41.7034 10.3754C41.5388 10.0421 41.1994 9.83105 40.8276 9.83105C40.4558 9.83105 40.1163 10.0421 39.9518 10.3754L38.5162 13.2844L35.3062 13.7507C34.9382 13.8042 34.6328 14.0619 34.5178 14.4154C34.403 14.7689 34.4988 15.157 34.7649 15.4165L37.0877 17.6808L36.5394 20.8778C36.4765 21.2442 36.6272 21.6145 36.928 21.8329C37.2288 22.0516 37.6275 22.0801 37.9564 21.9073L40.8276 20.3979L43.6988 21.9073C43.8416 21.9824 43.9977 22.0194 44.1531 22.0194C44.3555 22.0194 44.5571 21.9564 44.7272 21.8329C45.0279 21.6145 45.1786 21.2442 45.1158 20.8778L44.5674 17.6808L46.8903 15.4165C47.1564 15.157 47.2521 14.7689 47.1373 14.4154ZM42.8364 16.6404C42.6063 16.8648 42.5012 17.188 42.5555 17.5049L42.8562 19.2577L41.282 18.4301C41.1397 18.3553 40.9836 18.318 40.8276 18.318C40.6715 18.318 40.5155 18.3554 40.3732 18.4301L38.799 19.2577L39.0996 17.5049C39.1539 17.1881 39.0489 16.8648 38.8188 16.6404L37.5452 15.399L39.3051 15.1434C39.6233 15.0971 39.8982 14.8973 40.0405 14.6091L40.8276 13.0142L41.6147 14.6091C41.757 14.8973 42.0319 15.0971 42.35 15.1434L44.11 15.399L42.8364 16.6404Z" fill="white"/>
<path d="M7.06176 17.6808L6.51342 20.8778C6.45053 21.2442 6.60122 21.6145 6.902 21.8329C7.20278 22.0516 7.60141 22.0801 7.93042 21.9073L10.8016 20.3979L13.6728 21.9073C13.8157 21.9824 13.9717 22.0194 14.1271 22.0194C14.3295 22.0194 14.5311 21.9564 14.7012 21.8329C15.0019 21.6145 15.1526 21.2442 15.0898 20.8778L14.5415 17.6808L16.8643 15.4165C17.1305 15.157 17.2262 14.7689 17.1114 14.4154C16.9964 14.0619 16.6909 13.8042 16.323 13.7507L13.1129 13.2844L11.6774 10.3754C11.5128 10.0421 11.1734 9.83105 10.8016 9.83105C10.4298 9.83105 10.0904 10.0421 9.92583 10.3754L8.49028 13.2844L5.28022 13.7507C4.91225 13.8042 4.60678 14.0619 4.49184 14.4154C4.377 14.7689 4.4728 15.157 4.73891 15.4165L7.06176 17.6808ZM9.27915 15.1434C9.59731 15.0971 9.87221 14.8973 10.0145 14.6091L10.8016 13.0142L11.5887 14.6091C11.731 14.8973 12.0059 15.0971 12.3241 15.1434L14.084 15.399L12.8104 16.6404C12.5803 16.8648 12.4752 17.188 12.5295 17.5049L12.8302 19.2577L11.256 18.4301C11.1137 18.3553 10.9577 18.318 10.8016 18.318C10.6456 18.318 10.4895 18.3554 10.3472 18.4301L8.77299 19.2577L9.07368 17.5049C9.12797 17.1881 9.0229 16.8648 8.79282 16.6404L7.51919 15.399L9.27915 15.1434Z" fill="white"/>
<path d="M25.8047 4.83584C26.344 4.83584 26.7813 4.39853 26.7813 3.85928V0.976562C26.7813 0.437305 26.344 0 25.8047 0C25.2655 0 24.8282 0.437305 24.8282 0.976562V3.85928C24.8282 4.39853 25.2655 4.83584 25.8047 4.83584Z" fill="white"/>
<path d="M18.6011 6.9406C18.7918 7.13122 19.0417 7.22663 19.2916 7.22663C19.5415 7.22663 19.7914 7.13122 19.9821 6.9406C20.3635 6.55925 20.3635 5.94089 19.9821 5.55945L18.2905 3.86785C17.9091 3.4866 17.2909 3.4866 16.9094 3.86785C16.528 4.24919 16.528 4.86755 16.9094 5.249L18.6011 6.9406Z" fill="white"/>
<path d="M32.3385 7.2266C32.5884 7.2266 32.8383 7.13119 33.029 6.94056L34.7207 5.24896C35.1021 4.86761 35.1021 4.24935 34.7207 3.86781C34.3394 3.48666 33.7212 3.48656 33.3396 3.86781L31.6479 5.55951C31.2665 5.94086 31.2665 6.55912 31.6479 6.94066C31.8387 7.13119 32.0885 7.2266 32.3385 7.2266Z" fill="white"/>
<path d="M2.48187 39.9481C2.66351 39.7666 2.768 39.5146 2.768 39.2578C2.768 39.001 2.66361 38.749 2.48187 38.5674C2.29925 38.3857 2.04828 38.2812 1.79144 38.2812C1.53461 38.2812 1.28265 38.3856 1.10004 38.5674C0.918494 38.749 0.81488 39.001 0.81488 39.2578C0.81488 39.5146 0.918494 39.7666 1.10004 39.9481C1.28265 40.1298 1.53363 40.2344 1.79144 40.2344C2.04828 40.2344 2.30023 40.1299 2.48187 39.9481Z" fill="white"/>
</svg>
